<svg xmlns="http://www.w3.org/2000/svg" viewBox="0 0 1200 900" role="img" aria-labelledby="title desc">
  <title id="title">Bez černý</title>
  <desc id="desc">Ilustrativní cover s tmavými plody a světlými květy pro profil bezu černého.</desc>
  <defs>
    <linearGradient id="bg" x1="0" x2="1" y1="0" y2="1">
      <stop offset="0%" stop-color="#f6efdf"/>
      <stop offset="55%" stop-color="#ecdfc2"/>
      <stop offset="100%" stop-color="#d7c7a0"/>
    </linearGradient>
    <radialGradient id="berry" cx="50%" cy="50%" r="50%">
      <stop offset="0%" stop-color="#4e3a6d"/>
      <stop offset="100%" stop-color="#261733"/>
    </radialGradient>
    <filter id="shadow" x="-20%" y="-20%" width="140%" height="140%">
      <feDropShadow dx="0" dy="18" stdDeviation="18" flood-color="#2a1b17" flood-opacity="0.18"/>
    </filter>
  </defs>
  <rect width="1200" height="900" fill="url(#bg)"/>
  <circle cx="1020" cy="160" r="180" fill="#f9f2e7" opacity="0.7"/>
  <circle cx="180" cy="760" r="220" fill="#d8e2c6" opacity="0.65"/>
  <g filter="url(#shadow)">
    <path d="M295 785 C425 640 528 460 595 240" fill="none" stroke="#5b6f47" stroke-width="16" stroke-linecap="round"/>
    <path d="M595 240 C615 195 682 150 770 130" fill="none" stroke="#5b6f47" stroke-width="12" stroke-linecap="round"/>
    <path d="M560 350 C700 330 818 376 892 470" fill="none" stroke="#5b6f47" stroke-width="12" stroke-linecap="round"/>
    <path d="M470 455 C358 428 258 464 184 554" fill="none" stroke="#5b6f47" stroke-width="12" stroke-linecap="round"/>
    <g fill="#f7f1df">
      <circle cx="734" cy="160" r="20"/><circle cx="768" cy="174" r="16"/><circle cx="798" cy="156" r="15"/><circle cx="814" cy="186" r="18"/><circle cx="780" cy="208" r="16"/>
      <circle cx="885" cy="472" r="18"/><circle cx="916" cy="486" r="15"/><circle cx="943" cy="466" r="16"/><circle cx="960" cy="495" r="18"/><circle cx="924" cy="514" r="16"/>
    </g>
    <g fill="url(#berry)">
      <circle cx="216" cy="580" r="34"/><circle cx="260" cy="610" r="32"/><circle cx="309" cy="586" r="33"/><circle cx="286" cy="642" r="30"/><circle cx="233" cy="646" r="29"/>
      <circle cx="335" cy="633" r="28"/><circle cx="199" cy="633" r="26"/><circle cx="250" cy="689" r="24"/><circle cx="305" cy="690" r="24"/>
    </g>
  </g>
  <g fill="#1f2b1f">
    <text x="84" y="680" font-family="Georgia, 'Palatino Linotype', serif" font-size="96">bez černý</text>
    <text x="88" y="752" font-family="'Trebuchet MS', 'Segoe UI', sans-serif" font-size="36" letter-spacing="4">SAMBUCUS NIGRA</text>
  </g>
</svg>
