<svg xmlns="http://www.w3.org/2000/svg" viewBox="0 0 1200 900" role="img" aria-labelledby="title desc">
  <title id="title">Pampeliška lékařská</title>
  <desc id="desc">Ilustrativní cover se žlutými květy a semeníkem pro profil pampelišky lékařské.</desc>
  <defs>
    <linearGradient id="bg" x1="0" x2="1" y1="0" y2="1">
      <stop offset="0%" stop-color="#f5efcf"/>
      <stop offset="55%" stop-color="#edd36b"/>
      <stop offset="100%" stop-color="#c8a93a"/>
    </linearGradient>
    <filter id="shadow" x="-20%" y="-20%" width="140%" height="140%">
      <feDropShadow dx="0" dy="18" stdDeviation="18" flood-color="#503f13" flood-opacity="0.16"/>
    </filter>
  </defs>
  <rect width="1200" height="900" fill="url(#bg)"/>
  <circle cx="1040" cy="150" r="180" fill="#fbf4db" opacity="0.65"/>
  <circle cx="130" cy="800" r="230" fill="#d7de9f" opacity="0.55"/>
  <g filter="url(#shadow)">
    <path d="M408 786 C426 630 456 510 484 282" fill="none" stroke="#5d7b34" stroke-width="16" stroke-linecap="round"/>
    <path d="M678 786 C684 618 710 478 748 294" fill="none" stroke="#5d7b34" stroke-width="16" stroke-linecap="round"/>
    <g fill="#f4cb2c">
      <circle cx="482" cy="256" r="72"/>
      <circle cx="748" cy="268" r="64"/>
    </g>
    <g stroke="#f6df8e" stroke-width="10" stroke-linecap="round">
      <path d="M482 148 L482 80"/><path d="M482 364 L482 434"/><path d="M374 256 L304 256"/><path d="M590 256 L660 256"/>
      <path d="M408 182 L356 130"/><path d="M556 182 L610 128"/><path d="M408 330 L352 384"/><path d="M556 330 L612 384"/>
      <path d="M748 178 L748 120"/><path d="M748 354 L748 410"/><path d="M660 268 L606 268"/><path d="M836 268 L892 268"/>
      <path d="M690 210 L646 166"/><path d="M806 210 L850 166"/><path d="M690 326 L644 372"/><path d="M806 326 L850 372"/>
    </g>
    <g fill="none" stroke="#f7f7ef" stroke-width="5" stroke-linecap="round">
      <circle cx="910" cy="320" r="58"/>
      <path d="M910 262 L910 208"/><path d="M910 378 L910 430"/><path d="M852 320 L798 320"/><path d="M968 320 L1022 320"/>
      <path d="M868 278 L828 238"/><path d="M952 278 L992 238"/><path d="M868 362 L830 400"/><path d="M952 362 L992 402"/>
      <path d="M886 268 L862 214"/><path d="M934 268 L958 214"/><path d="M886 372 L860 428"/><path d="M934 372 L960 428"/>
    </g>
  </g>
  <g fill="#2a2b17">
    <text x="80" y="682" font-family="Georgia, 'Palatino Linotype', serif" font-size="84">pampeliška lékařská</text>
    <text x="86" y="754" font-family="'Trebuchet MS', 'Segoe UI', sans-serif" font-size="34" letter-spacing="4">TARAXACUM OFFICINALE AGG.</text>
  </g>
</svg>
