<svg xmlns="http://www.w3.org/2000/svg" viewBox="0 0 1200 900" role="img" aria-labelledby="title desc">
  <title id="title">Lípa srdčitá a lípa velkolistá</title>
  <desc id="desc">Ilustrativní cover s listy a květenstvím pro profil lípy.</desc>
  <defs>
    <linearGradient id="bg" x1="0" x2="1" y1="0" y2="1">
      <stop offset="0%" stop-color="#f3ecd4"/>
      <stop offset="55%" stop-color="#ded79c"/>
      <stop offset="100%" stop-color="#c3be79"/>
    </linearGradient>
    <filter id="shadow" x="-20%" y="-20%" width="140%" height="140%">
      <feDropShadow dx="0" dy="18" stdDeviation="18" flood-color="#2d351e" flood-opacity="0.18"/>
    </filter>
  </defs>
  <rect width="1200" height="900" fill="url(#bg)"/>
  <circle cx="1015" cy="160" r="190" fill="#f5f0d7" opacity="0.7"/>
  <circle cx="170" cy="760" r="210" fill="#dbe3af" opacity="0.45"/>
  <g filter="url(#shadow)">
    <path d="M312 778 C384 640 451 498 506 318" fill="none" stroke="#61753a" stroke-width="18" stroke-linecap="round"/>
    <path d="M506 318 C565 288 635 254 720 202" fill="none" stroke="#61753a" stroke-width="12" stroke-linecap="round"/>
    <path d="M470 435 C590 412 707 442 815 514" fill="none" stroke="#61753a" stroke-width="12" stroke-linecap="round"/>
    <g fill="#91aa54">
      <path d="M648 213 C717 132 849 162 846 286 C768 325 677 299 648 213 Z"/>
      <path d="M790 516 C885 438 1018 497 1000 632 C906 672 802 632 790 516 Z"/>
      <path d="M248 555 C314 474 430 484 471 581 C411 658 282 654 248 555 Z"/>
    </g>
    <g fill="#f2d47d">
      <circle cx="718" cy="266" r="18"/><circle cx="748" cy="287" r="16"/><circle cx="776" cy="268" r="17"/><circle cx="804" cy="291" r="16"/>
      <circle cx="816" cy="566" r="18"/><circle cx="846" cy="587" r="16"/><circle cx="875" cy="568" r="17"/><circle cx="904" cy="590" r="16"/>
      <circle cx="326" cy="596" r="18"/><circle cx="356" cy="617" r="16"/><circle cx="386" cy="599" r="17"/><circle cx="412" cy="620" r="16"/>
    </g>
  </g>
  <g fill="#1f2b1f">
    <text x="82" y="682" font-family="Georgia, 'Palatino Linotype', serif" font-size="88">lípa</text>
    <text x="86" y="754" font-family="'Trebuchet MS', 'Segoe UI', sans-serif" font-size="34" letter-spacing="4">TILIA CORDATA / TILIA PLATYPHYLLOS</text>
  </g>
</svg>
